<?xml version="1.0" encoding="iso-8859-1"?>
<!-- Uploaded to: SVG Repo, www.svgrepo.com, Generator: SVG Repo Mixer Tools -->
<!DOCTYPE svg PUBLIC "-//W3C//DTD SVG 1.1//EN" "http://www.w3.org/Graphics/SVG/1.1/DTD/svg11.dtd">
<svg fill="#000000" version="1.1" id="Capa_1" xmlns="http://www.w3.org/2000/svg" xmlns:xlink="http://www.w3.org/1999/xlink" 
	 width="800px" height="800px" viewBox="0 0 88.25 88.25" xml:space="preserve"
	>
<g>
	<path d="M88.25,38.625h-3.971l-0.051-0.131c-4.177-9.03-18.418-15.74-35.479-16.737v-3.132h-9v3.135
		C21.362,22.834,6.548,30.434,3.56,40.375H0v9h4.373l-0.227,0.1C8.169,58.671,22.448,65.48,39.75,66.491v3.134h9v-3.134
		c18.596-1.086,33.447-8.804,36.262-18.866h3.238V38.625z M40.75,19.625h7v7h-7V19.625z M1,48.375v-7h7v7H6.944
		c-0.015-0.035-0.034-0.068-0.049-0.104L6.66,48.375H1z M47.75,68.625h-7v-7h7V68.625z M48.75,63.484v-2.859h-9v2.859
		c-15.142-0.924-28.082-6.619-32.296-14.109H9v-9H6.733c3.225-8.181,16.773-14.617,33.017-15.609v2.859h9v-2.858
		c15.145,0.922,27.73,6.41,32.107,13.858h-1.608v9h2.612C78.822,55.922,65.205,62.48,48.75,63.484z M87.25,46.625h-7v-7h7V46.625z"
		/>
</g>
</svg>